<svg xmlns="http://www.w3.org/2000/svg" width="150pt" height="150pt" viewBox="0 0 150 150" version="1.1" class="iconadda">
<g id="animate_0" transform="rotate(0,75,75) translate(0,0) scale(1.0,1.0)">
<g id="animate_1" style="transform-origin: 75px 112.5px;"><path style="stroke: none; fill-rule: nonzero; fill-opacity: 1;" d="M 25 106.25 L 125 106.25 C 128.453125 106.25 131.25 109.703125 131.25 112.5 C 131.25 115.953125 128.453125 118.75 125 118.75 L 25 118.75 C 21.546875 118.75 18.75 115.296875 18.75 112.5 C 18.75 109.046875 21.546875 106.25 25 106.25 Z M 25 106.25 " id="animate_2" data-original="#000001" fill="#000001"></path>
</g><g id="animate_3" style="transform-origin: 75px 75px;"><path style="stroke: none; fill-rule: nonzero; fill-opacity: 1;" d="M 25 68.75 L 125 68.75 C 128.453125 68.75 131.25 72.203125 131.25 75 C 131.25 78.453125 128.453125 81.25 125 81.25 L 25 81.25 C 21.546875 81.25 18.75 77.796875 18.75 75 C 18.75 71.546875 21.546875 68.75 25 68.75 Z M 25 68.75 " id="animate_4" data-original="#000001" fill="#000001"></path>
</g><g id="animate_5" style="transform-origin: 75px 37.5px;"><path style="stroke: none; fill-rule: nonzero; fill-opacity: 1;" d="M 25 31.25 L 125 31.25 C 128.453125 31.25 131.25 34.703125 131.25 37.5 C 131.25 40.953125 128.453125 43.75 125 43.75 L 25 43.75 C 21.546875 43.75 18.75 40.296875 18.75 37.5 C 18.75 34.046875 21.546875 31.25 25 31.25 Z M 25 31.25 " id="animate_6" data-original="#000001" fill="#000001"></path>
</g></g>
</svg>